<svg width="143" height="103" viewBox="0 0 143 103" fill="none" xmlns="http://www.w3.org/2000/svg">
<g transform="translate(0, 0)">
<!--<path d="M125.326 37.9844V92.4584C125.326 96.1675 122.332 99.1616 118.623 99.1616H54.7422L44.9556 110.266C40.889 114.892 33.2251 112.009 33.2251 105.82V99.1616H24.5781C20.8914 99.1616 17.875 96.1675 17.875 92.4584V37.9844C17.875 34.2753 20.8914 31.2812 24.5781 31.2812H118.623C122.332 31.2812 125.326 34.2753 125.326 37.9844Z" fill="#FDFDFD"/>-->
<path d="M72.0911 77.9473H80.4876C80.4876 80.2662 79.5479 82.3577 78.0323 83.8885C76.5167 85.4041 74.41 86.3438 72.0911 86.3438C67.4533 86.3438 63.6945 82.5851 63.6945 77.9473H72.0911Z" fill="#DA8627"/>
<path d="M101.479 70.3692V71.127C101.479 74.8858 98.4175 77.9473 94.6587 77.9473H49.5234C45.7495 77.9473 42.7031 74.8858 42.7031 71.127V70.3692C42.7031 67.8836 44.1126 65.7314 46.2042 64.3977C49.6598 62.2152 49.675 56.9559 49.675 56.9559V35.5705C49.675 26.507 59.3901 19.1562 71.3636 19.1562H72.8034C84.792 19.1562 94.5071 26.507 94.5071 35.5705V56.9559C94.5071 56.9559 94.5071 62.2152 97.9628 64.3977C100.054 65.7314 101.479 67.8836 101.479 70.3692Z" fill="#FDC012" stroke="#DA8627" stroke-width="3"/>
<!--<path d="M115 31.5C115 40.0604 108.06 47 99.5 47C90.9396 47 84 40.0604 84 31.5C84 22.9396 90.9396 16 99.5 16C108.06 16 115 22.9396 115 31.5Z" fill="#F85A7B"/>
<path d="M96.45 23.35L102.675 21.975L103.025 22.225L102.925 25.775V32.8C102.925 33.35 102.925 33.9 102.925 34.45C102.925 35 102.933 35.5583 102.95 36.125L105.85 36.825V38H95.825V36.825L98.875 36.125C98.8917 35.575 98.9 35.025 98.9 34.475C98.9 33.9083 98.9 33.35 98.9 32.8V24.575L96.45 24.8V23.35Z" fill="#FDFDFD"/>-->
</g>
</svg>
